<svg width="39" height="35" viewBox="0 0 39 35" fill="none" xmlns="http://www.w3.org/2000/svg">
<path fill-rule="evenodd" clip-rule="evenodd" d="M17.3333 28.3432C17.4419 28.4394 17.5826 28.4924 17.7271 28.4924C17.7417 28.4924 17.7562 28.4924 17.7707 28.4909C17.9305 28.4795 18.0789 28.4038 18.1814 28.2818L35.7727 7.33408C37.3311 5.47802 37.1292 2.76438 35.3138 1.15529C34.3947 0.340899 33.2124 -0.0591014 31.9805 0.0310501C30.7501 0.121202 29.6382 0.687868 28.849 1.62726L11.4382 22.3606C11.2348 22.603 11.2608 22.9614 11.4978 23.1712L17.3333 28.3432ZM17.6644 27.0667L12.7099 22.6757L29.7567 2.3765C30.3387 1.68332 31.1592 1.26514 32.0661 1.19923C32.9784 1.13105 33.8464 1.42802 34.5247 2.02878C35.8644 3.2159 36.0128 5.21741 34.8634 6.5856L17.6644 27.0667Z" fill="white"/>
<path fill-rule="evenodd" clip-rule="evenodd" d="M9.42942 31.7553C9.53801 31.8454 9.67337 31.8924 9.80948 31.8924C9.88901 31.8924 9.96931 31.8765 10.0435 31.8447L17.9612 28.4454C18.1463 28.3659 18.2778 28.1985 18.31 28.0007C18.3413 27.803 18.2702 27.603 18.1188 27.4704L12.2672 22.3166C12.112 22.1795 11.8956 22.1348 11.6975 22.1954C11.4995 22.2568 11.3481 22.4174 11.2999 22.6174L9.23442 31.1704C9.18242 31.3863 9.25813 31.6128 9.42942 31.7553ZM10.6598 30.3038L12.2206 23.8409L16.6429 27.7356L10.6598 30.3038Z" fill="white"/>
<path d="M38.4089 34.9814H0.591118C0.264588 34.9814 0 34.7193 0 34.3958V4.67154C0 4.34806 0.264588 4.08594 0.591118 4.08594H27.0614C27.3879 4.08594 27.6525 4.34806 27.6525 4.67154C27.6525 4.99503 27.3879 5.25715 27.0614 5.25715H1.18147V33.8102H38.4089C38.7354 33.8102 39 34.0723 39 34.3958C39 34.7193 38.7354 34.9814 38.4089 34.9814Z" fill="white"/>
<path d="M38.409 34.9814C38.0824 34.9814 37.8178 34.7193 37.8178 34.3958V5.25715H36.2181C35.8915 5.25715 35.627 4.99503 35.627 4.67154C35.627 4.34806 35.8915 4.08594 36.2181 4.08594H38.409C38.7355 4.08594 39.0001 4.34806 39.0001 4.67154V34.3958C39.0001 34.7193 38.7355 34.9814 38.409 34.9814Z" fill="white"/>
<path d="M38.409 13.4251H30.3812C30.0546 13.4251 29.79 13.163 29.79 12.8395C29.79 12.516 30.0546 12.2539 30.3812 12.2539H38.409C38.7356 12.2539 39.0002 12.516 39.0002 12.8395C39.0002 13.163 38.7356 13.4251 38.409 13.4251Z" fill="white"/>
<path d="M20.2012 13.4251H0.591118C0.264588 13.4251 0 13.163 0 12.8395C0 12.516 0.264588 12.2539 0.591118 12.2539H20.2012C20.5278 12.2539 20.7924 12.516 20.7924 12.8395C20.7924 13.163 20.5278 13.4251 20.2012 13.4251Z" fill="white"/>
<path fill-rule="evenodd" clip-rule="evenodd" d="M2.74365 8.75489C2.74365 10.1541 3.89224 11.292 5.30465 11.292C6.7163 11.292 7.86489 10.1541 7.86489 8.75489C7.86489 7.35565 6.7163 6.21777 5.30465 6.21777C3.89224 6.21777 2.74365 7.35565 2.74365 8.75489ZM3.92589 8.75489C3.92589 8.00186 4.54453 7.38899 5.30465 7.38899C6.06477 7.38899 6.68342 8.00186 6.68342 8.75489C6.68342 9.50793 6.06477 10.1208 5.30465 10.1208C4.54453 10.1208 3.92589 9.50793 3.92589 8.75489Z" fill="white"/>
<path fill-rule="evenodd" clip-rule="evenodd" d="M9.04639 8.75489C9.04639 10.1541 10.195 11.292 11.6074 11.292C13.0198 11.292 14.1684 10.1541 14.1684 8.75489C14.1684 7.35565 13.0198 6.21777 11.6074 6.21777C10.195 6.21777 9.04639 7.35565 9.04639 8.75489ZM10.2286 8.75489C10.2286 8.00186 10.8473 7.38899 11.6074 7.38899C12.3675 7.38899 12.9862 8.00186 12.9862 8.75489C12.9862 9.50793 12.3675 10.1208 11.6074 10.1208C10.8473 10.1208 10.2286 9.50793 10.2286 8.75489Z" fill="white"/>
<path fill-rule="evenodd" clip-rule="evenodd" d="M15.3501 8.75489C15.3501 10.1541 16.4987 11.292 17.9111 11.292C19.3227 11.292 20.4713 10.1541 20.4713 8.75489C20.4713 7.35565 19.3235 6.21777 17.9111 6.21777C16.4987 6.21777 15.3501 7.35565 15.3501 8.75489ZM16.5323 8.75489C16.5323 8.00186 17.1502 7.38899 17.9111 7.38899C18.6712 7.38899 19.2899 8.00186 19.2899 8.75489C19.2899 9.50793 18.6712 10.1208 17.9111 10.1208C17.151 10.1208 16.5323 9.50793 16.5323 8.75489Z" fill="white"/>
<path fill-rule="evenodd" clip-rule="evenodd" d="M30.3328 12.8859C30.4399 12.9768 30.576 13.0261 30.716 13.0261C30.7328 13.0261 30.7496 13.0253 30.7664 13.0223C30.9232 13.0094 31.0685 12.9337 31.1694 12.814L33.9973 9.44654C34.2038 9.20109 34.1732 8.83594 33.9277 8.6276L27.9837 3.58518C27.8644 3.48291 27.7 3.43291 27.5501 3.44654C27.3918 3.46018 27.2465 3.53518 27.1455 3.65563L24.3047 7.04048C24.0974 7.28669 24.1295 7.6526 24.3758 7.86018L30.3328 12.8859ZM30.6441 11.6109L25.5871 7.34427L27.6709 4.86094L32.7172 9.142L30.6441 11.6109Z" fill="white"/>
</svg>
